<mxfile host="app.diagrams.net" modified="2022-06-26T01:51:49.063Z" agent="5.0 (Macintosh; Intel Mac OS X 10_15_7) AppleWebKit/537.36 (KHTML, like Gecko) Chrome/102.0.0.0 Safari/537.36" etag="rtiCyaGlhMfxIjbSYh78" version="20.0.3" type="github">
  <diagram id="K4vAkyuHzr__zoMk4vQg" name="Page-1">
    <mxGraphModel dx="2066" dy="2217" grid="1" gridSize="10" guides="1" tooltips="1" connect="1" arrows="1" fold="1" page="1" pageScale="1" pageWidth="827" pageHeight="1169" math="0" shadow="0">
      <root>
        <mxCell id="0" />
        <mxCell id="1" parent="0" />
        <mxCell id="HxmhVXZMZb9d3OeHC13k-1" value="&lt;font style=&quot;font-size: 24px;&quot;&gt;操作系统（Windows、Linux、Mac OS）&lt;/font&gt;" style="rounded=0;whiteSpace=wrap;html=1;" vertex="1" parent="1">
          <mxGeometry x="140" y="200" width="600" height="70" as="geometry" />
        </mxCell>
        <mxCell id="HxmhVXZMZb9d3OeHC13k-2" value="JRE -- JVM" style="rounded=0;whiteSpace=wrap;html=1;fontSize=24;" vertex="1" parent="1">
          <mxGeometry x="140" y="90" width="460" height="70" as="geometry" />
        </mxCell>
        <mxCell id="HxmhVXZMZb9d3OeHC13k-3" value="程序A" style="ellipse;whiteSpace=wrap;html=1;aspect=fixed;fontSize=24;" vertex="1" parent="1">
          <mxGeometry x="140" y="-30" width="80" height="80" as="geometry" />
        </mxCell>
        <mxCell id="HxmhVXZMZb9d3OeHC13k-4" value="程序B" style="ellipse;whiteSpace=wrap;html=1;aspect=fixed;fontSize=24;" vertex="1" parent="1">
          <mxGeometry x="260" y="-30" width="80" height="80" as="geometry" />
        </mxCell>
        <mxCell id="HxmhVXZMZb9d3OeHC13k-5" value="程序C" style="ellipse;whiteSpace=wrap;html=1;aspect=fixed;fontSize=24;" vertex="1" parent="1">
          <mxGeometry x="390" y="-30" width="80" height="80" as="geometry" />
        </mxCell>
        <mxCell id="HxmhVXZMZb9d3OeHC13k-6" value="程序D" style="ellipse;whiteSpace=wrap;html=1;aspect=fixed;fontSize=24;" vertex="1" parent="1">
          <mxGeometry x="520" y="-30" width="80" height="80" as="geometry" />
        </mxCell>
        <mxCell id="HxmhVXZMZb9d3OeHC13k-7" value="程序E" style="ellipse;whiteSpace=wrap;html=1;aspect=fixed;fontSize=24;" vertex="1" parent="1">
          <mxGeometry x="660" y="80" width="80" height="80" as="geometry" />
        </mxCell>
        <mxCell id="HxmhVXZMZb9d3OeHC13k-8" value="&lt;font style=&quot;font-size: 24px;&quot;&gt;硬件体系&lt;/font&gt;" style="rounded=0;whiteSpace=wrap;html=1;" vertex="1" parent="1">
          <mxGeometry x="140" y="320" width="600" height="70" as="geometry" />
        </mxCell>
      </root>
    </mxGraphModel>
  </diagram>
</mxfile>
